PathFileType	4	(X/Y/Z)	D:/视觉行为平台/test_2/20260814/mocap/street1/street1-Unnamed.trc
DataRate	CameraRate	NumFrames	NumMarkers	Units	OrigDataRate	OrigDataStartFrame	OrigNumFrames	useTimeStamp
90	90	     6	0	mm	90	19800	     22628	         1
Frame#	Time	Timestamp	
			X1	Y1	Z1	X2	Y2	Z2	X3	Y3	Z3	X4	Y4	Z4	X5	Y5	Z5	X6	Y6	Z6	X7	Y7	Z7	X8	Y8	Z8	X9	Y9	Z9	X10	Y10	Z10	X11	Y11	Z11	X12	Y12	Z12	X13	Y13	Z13	X14	Y14	Z14	X15	Y15	Z15	X16	Y16	Z16	X17	Y17	Z17	X18	Y18	Z18	X19	Y19	Z19	X20	Y20	Z20	X21	Y21	Z21	X22	Y22	Z22	X23	Y23	Z23	X24	Y24	Z24	X25	Y25	Z25	X26	Y26	Z26	X27	Y27	Z27	X28	Y28	Z28	X29	Y29	Z29	X30	Y30	Z30	X31	Y31	Z31	X32	Y32	Z32	X33	Y33	Z33	X34	Y34	Z34	X35	Y35	Z35	X36	Y36	Z36	X37	Y37	Z37	X38	Y38	Z38	X39	Y39	Z39	X40	Y40	Z40	X41	Y41	Z41	X42	Y42	Z42	X43	Y43	Z43	X44	Y44	Z44	X45	Y45	Z45	X46	Y46	Z46	X47	Y47	Z47	X48	Y48	Z48	X49	Y49	Z49	X50	Y50	Z50	X51	Y51	Z51	X52	Y52	Z52	X53	Y53	Z53	X54	Y54	Z54	X55	Y55	Z55	

19800	219.988	1787219167000	260.574860	34.209812	740.354736	-91.020866	40.295803	923.610107	281.922821	708.488098	869.668579	266.686493	211.427948	857.751831	345.782867	1267.353638	912.642029	257.824402	414.646515	861.413757	208.092133	40.051800	686.446411	217.077682	600.266968	795.532776	157.158295	49.537041	756.361084	160.179947	416.967194	829.667786	76.048767	1190.469360	800.953430	-31.131556	47.951229	952.359802	-110.000183	40.897038	1005.921143	7.274023	446.613800	940.690979	-65.586121	309.346436	1014.614014	247.857147	1375.510620	873.365967	-238.676163	816.599854	954.699402	-201.137238	885.974182	910.124207	-92.817558	661.093506	898.238647	-192.963608	1010.245422	941.698853	138.975220	1723.178833	881.711304	-109.447433	1379.939087	974.132507	-75.289024	448.638763	986.715210	-198.483795	1050.918823	1014.540039	-231.586426	810.617615	902.261841	-60.885136	893.582214	861.893738	-89.229912	913.328918	985.488403	272.515717	918.878845	922.037598	216.612701	25.469906	926.466797	426.712646	999.394653	942.694580	110.829292	1432.172974	1038.818848	383.842987	874.326355	875.665405	186.547501	932.867676	1042.054810	4.041548	48.643723	1139.145264	200.888580	907.148010	799.378235	-149.009079	1257.212646	977.158936	86.787933	1377.927734	845.951050	-208.975555	853.674744	994.313782	439.224762	896.394043	899.079407	445.241821	829.967896	856.072327	466.631805	815.651428	903.550720	394.626495	1080.728027	977.915955	
19801	220.000	1787219167011	260.661499	34.155251	740.462219	-90.855377	40.390869	923.696045	281.401703	708.591614	874.597473	266.692200	211.395493	858.827576	342.832916	1268.195679	920.314453	257.442749	414.798492	863.623169	208.314209	40.189522	686.405029	217.033142	600.307434	798.924255	157.408524	49.725010	756.430298	160.097794	416.977875	831.263000	74.969765	1189.781860	804.222778	-30.938103	47.812374	952.466187	-109.981194	40.838554	1006.178589	9.598013	446.401825	945.388489	-64.667442	309.535095	1016.765991	244.793900	1375.611938	879.361694	-241.227631	815.035034	952.121826	-203.097382	884.553894	908.318970	-91.743401	659.729553	900.367798	-196.105026	1008.913025	940.220154	134.983078	1722.819336	885.370239	-114.047417	1378.761108	974.164856	-73.206230	448.022705	989.995117	-202.900452	1049.581299	1012.954712	-233.031265	809.036926	900.128357	-61.710991	892.522339	863.337891	-91.692696	912.007568	986.500793	270.620636	918.970764	928.570557	216.465378	25.325083	926.354553	426.536926	1000.532776	953.422546	105.000481	1431.958984	1042.862427	386.201416	875.087830	886.618530	183.019867	932.433228	1046.999023	5.411969	46.162628	1141.451172	200.651382	907.303894	804.681091	-153.676743	1255.811646	976.618347	84.333046	1377.327759	849.297729	-211.906738	853.108765	991.112427	440.570740	898.044434	911.085754	444.187775	822.323853	871.264160	467.196136	813.110840	918.338379	391.558746	1081.698364	986.886597	
19802	220.011	1787219167022	260.826843	34.069820	740.517761	-90.664986	40.364174	923.972046	280.380249	708.743530	879.038330	266.609711	211.524139	859.968689	339.518860	1268.920654	928.126953	257.079803	414.522858	866.162476	208.622116	40.364838	686.370911	217.271774	600.784912	802.436096	157.530396	49.848133	756.400024	159.909363	417.043121	832.963806	73.660515	1189.255737	807.328796	-30.872614	47.760792	952.628784	-109.899239	40.729275	1006.372253	11.746923	446.417511	949.554443	-63.815250	309.734833	1019.118408	241.751633	1375.820557	885.640381	-243.663300	813.682739	949.760620	-204.916534	883.105713	906.621216	-90.727173	658.508057	902.963440	-198.893250	1007.565125	938.695740	131.166977	1722.404907	889.503357	-118.734573	1377.771729	974.057068	-71.457344	447.224091	993.419861	-207.188721	1048.268799	1011.414429	-234.705658	807.771667	897.676941	-62.498154	891.491699	864.948914	-96.056587	911.925659	985.677917	268.806152	918.774292	935.299255	216.479706	25.344240	926.350647	425.255493	1002.394104	964.184692	97.742607	1432.934448	1048.165405	388.210846	875.926331	897.236511	179.491348	932.148132	1051.832520	5.203987	45.300915	1141.799194	200.616150	907.277222	809.886658	-157.939926	1254.766968	975.942749	81.464401	1376.836670	852.599182	-215.106369	851.525757	989.143799	441.589691	899.741028	922.748413	441.734344	818.954712	884.149963	470.736481	815.853394	930.662781	388.508423	1082.965820	996.017822	-177.077957	1079.140137	1049.248779	
19803	220.022	1787219167033	260.958038	33.899757	740.546021	-90.530037	40.460930	924.185791	279.394470	708.540466	884.927734	266.329712	211.406860	861.342163	336.296387	1269.769043	936.279358	256.643646	414.604797	868.652405	209.281097	40.695492	686.367065	217.294418	601.114990	806.100464	157.844589	50.099705	756.435547	159.947586	417.415253	834.417786	72.286896	1188.699951	810.882385	-30.743597	47.702538	952.819885	-109.874100	40.798485	1006.522827	13.456621	446.205872	954.487244	-63.217876	309.592987	1021.335327	238.536179	1376.017578	891.624146	-246.997589	812.743042	946.133484	-206.712402	881.665466	905.029724	-89.758102	657.533630	905.060608	-201.664368	1006.065430	937.099670	126.843338	1722.349731	893.414795	-123.313766	1376.562622	973.739807	-70.275368	446.725800	996.605408	-211.269394	1046.738770	1009.660889	-235.996567	806.380127	895.398499	-63.545952	890.581482	866.350220	-98.689392	911.270691	986.545349	267.056335	918.546875	942.563721	216.451355	25.352520	926.443726	423.684326	1004.260498	974.444092	91.937469	1432.642944	1051.530151	389.756500	877.173035	907.330383	175.870621	932.008606	1057.042236	5.197762	44.806431	1142.109009	200.626846	907.392029	815.595337	-162.112061	1253.255005	975.068054	78.937874	1376.445312	855.734924	-219.215851	850.272034	986.748779	442.258820	901.694702	934.110840	445.778137	822.551208	895.480347	471.846649	818.414978	943.408203	385.530914	1084.425415	1005.067017	-181.830246	1078.211670	1047.872192	
19804	220.033	1787219167045	261.141296	33.787838	740.731140	-90.490913	40.465843	924.219604	278.921234	708.547607	890.359375	266.494934	211.914856	862.671021	333.145355	1270.880737	944.361572	256.427155	414.669678	871.264587	209.821701	40.952354	686.465576	217.951904	602.022278	808.820557	158.193268	50.462063	756.520752	160.176025	417.753204	835.968628	71.521484	1188.314331	814.123169	-30.609528	47.738926	953.212341	-109.954704	40.826748	1006.605347	15.019601	446.271423	959.522888	-62.653542	309.971222	1023.559509	235.322586	1376.272583	897.847717	-249.013260	811.175415	943.612671	-208.297562	880.297607	903.408447	-88.522781	656.374817	907.522766	-204.268494	1004.719482	935.427551	122.717087	1721.968262	896.978455	-128.048569	1375.297607	973.592529	-68.990402	446.282837	999.739807	-215.471451	1045.171509	1007.824036	-237.185196	804.825806	893.168945	-63.871681	889.829895	867.894714	-101.112465	910.851929	987.091919	265.148895	918.409363	949.737366	216.469757	25.266850	926.318787	421.998627	1006.410034	984.628845	87.496384	1431.666504	1056.983643	391.226562	878.823364	916.922424	172.470078	931.802795	1062.303101	4.966465	44.159958	1142.524292	200.610001	907.572449	821.190430	-166.625320	1252.233765	974.089844	76.403381	1376.182495	859.033203	-222.102005	848.649963	984.868347	442.699371	903.940735	945.143860	452.215027	828.146240	907.291748	472.408936	821.537720	956.237061	381.791595	1085.830933	1014.285278	-185.028885	1077.975464	1047.255127	
19805	220.044	1787219167056	261.373535	33.696651	740.886780	-90.397156	40.417976	924.460876	278.379761	708.636292	896.000488	266.160614	211.571640	863.966919	329.523926	1272.040283	952.561157	255.990402	414.417938	873.842896	210.359863	41.109577	686.618225	218.387726	602.278442	812.781738	158.587173	50.763020	756.488708	160.117981	418.108521	837.261475	70.773018	1187.952515	817.741089	-30.578869	47.663761	953.434143	-109.995544	40.911400	1006.834778	16.161776	446.627747	964.722229	-62.562359	310.469818	1025.808716	231.941299	1377.058960	904.401001	-251.097290	809.663574	941.184875	-209.685226	878.846252	901.564209	-87.410233	655.517700	909.973999	-206.892670	1003.309265	933.888733	118.979668	1721.539795	900.336304	-132.387329	1373.923462	972.900146	-68.004517	445.720245	1003.156128	-219.560059	1043.645508	1005.778198	-238.093460	803.457214	890.778503	-64.334846	889.070007	869.484253	-103.297478	909.890259	987.960388	263.256897	918.332397	957.254028	216.387146	25.218792	926.359009	420.049652	1008.710876	994.893005	81.044083	1431.915405	1061.020874	392.306976	880.916382	926.023560	169.138535	932.105408	1067.713989	4.674675	43.672459	1142.901001	201.049179	907.596191	827.148010	-170.758682	1250.797363	972.957642	73.781647	1376.026245	862.130859	-225.106384	847.609497	982.788208	442.587799	906.526001	955.881042	455.794037	831.756287	917.049500	474.716675	825.669067	967.315552	378.696777	1087.540161	1023.552063	-189.911392	1076.622070	1045.472900	-88.242691	1351.828979	1069.153320	
